<svg id="Layer_1" data-name="Layer 1" xmlns="http://www.w3.org/2000/svg" viewBox="0 0 1032.94 231.97"><defs><style>.cls-1{font-size:199.46px;font-family:WorkSans-Light, Work Sans;}</style></defs><title>logo</title><text class="cls-1" transform="translate(181.46 165.55)">BULAAVA</text><path d="M92,52.29a84.1,84.1,0,0,1-7.38,7.26,55.6,55.6,0,1,1-39.87.28,88.51,88.51,0,0,1-7.32-7.21A65.29,65.29,0,1,0,92,52.29Z"/><path d="M88.19,14.87C83.83,10,77.58,9.67,76.46,9.62c-4.25-.17-8.6,2.57-12.06,5.64-3.36-3.19-7.54-6-11.9-6-1,0-7.32.11-11.9,4.85-6,6.09-4.52,15.2-4.3,16.7C38.93,48.49,61.77,61,63.61,62.62h0C66.35,61.22,90.7,48.71,92,29.83,92.26,26.54,92.71,20,88.19,14.87Z"/></svg>